<svg width="84" height="84" viewBox="0 0 84 84" fill="none" xmlns="http://www.w3.org/2000/svg">
<g clip-path="url(#clip0)">
<rect x="71" y="47" width="4" height="4" fill="#FFDD63"/>
<circle cx="22" cy="61" r="6" fill="#FFDD63"/>
<circle cx="64" cy="61" r="6" fill="#FFDD63"/>
<path d="M71.404 40.5895L69.4157 32.6364C69.9593 32.5209 70.3672 32.0387 70.3672 31.4609V30.1786C70.3672 27.3945 68.1021 25.1295 65.3181 25.1295H56.2618V22.4845C56.2618 21.1145 55.1473 20 53.7773 20H7.6137C6.24368 20 5.12918 21.1145 5.12918 22.4845V44.284C5.12918 44.9479 5.66739 45.4862 6.3314 45.4862C6.99527 45.4862 7.53362 44.948 7.53362 44.284V22.4845C7.53362 22.4403 7.56946 22.4044 7.6137 22.4044H53.7771C53.8213 22.4044 53.8572 22.4403 53.8572 22.4845V44.2843C53.8572 44.9482 54.3954 45.4865 55.0594 45.4865C55.7233 45.4865 56.2616 44.9483 56.2616 44.2843V42.9215H70.4431C70.4443 42.9215 70.4452 42.9218 70.4462 42.9218C70.4474 42.9218 70.4485 42.9216 70.4495 42.9216C72.1946 42.9228 73.6763 44.0682 74.1853 45.6465H70.4471C69.7832 45.6465 69.2449 46.1847 69.2449 46.8487V49.4133C69.2449 51.4904 70.9346 53.1801 73.0117 53.1801H74.3742V58.4696H71.2308C70.1982 55.488 67.3638 53.3403 64.0355 53.3403C60.7071 53.3403 57.8726 55.488 56.8402 58.4696H56.2613V49.4132C56.2613 48.7493 55.7231 48.211 55.0591 48.211C54.3952 48.211 53.8569 48.7492 53.8569 49.4132V58.4693H28.9146C27.882 55.4877 25.0476 53.34 21.7193 53.34C18.3909 53.34 15.5564 55.4877 14.5239 58.4693H7.6137C7.56946 58.4693 7.53362 58.4335 7.53362 58.3893V55.7444H12.743C13.4069 55.7444 13.9453 55.2062 13.9453 54.5422C13.9453 53.8782 13.407 53.34 12.743 53.34H1.20222C0.538351 53.34 0 53.8782 0 54.5422C0 55.2062 0.538202 55.7444 1.20222 55.7444H5.12933V58.3893C5.12933 59.7593 6.24383 60.8738 7.61385 60.8738H14.1077C14.1074 60.9005 14.1056 60.927 14.1056 60.9538C14.1056 65.1521 17.5212 68.5675 21.7193 68.5675C25.9173 68.5675 29.333 65.1521 29.333 60.9538C29.333 60.9269 29.3312 60.9005 29.3309 60.8738H56.4239C56.4236 60.9005 56.4218 60.927 56.4218 60.9538C56.4218 65.1521 59.8374 68.5675 64.0355 68.5675C68.2336 68.5675 71.6492 65.1521 71.6492 60.9538C71.6492 60.9269 71.6474 60.9005 71.6471 60.8738H75.5764C76.2403 60.8738 76.7787 60.3356 76.7787 59.6715V46.8484C76.7788 43.6825 74.4429 41.0521 71.404 40.5895ZM56.2618 27.5338H65.3181C66.7764 27.5338 67.9629 28.7202 67.9629 30.1786V30.2587H56.2618V27.5338ZM56.2618 40.5172V32.663H66.9441L68.9076 40.5172H56.2618ZM21.7193 66.1636C18.8468 66.1636 16.5098 63.8268 16.5098 60.9541C16.5098 58.0815 18.8468 55.7447 21.7193 55.7447C24.5917 55.7447 26.9287 58.0815 26.9287 60.9541C26.9287 63.8268 24.5917 66.1636 21.7193 66.1636ZM64.0358 66.1636C61.1633 66.1636 58.8264 63.8268 58.8264 60.9541C58.8264 58.0815 61.1633 55.7447 64.0358 55.7447C66.9082 55.7447 69.2452 58.0815 69.2452 60.9541C69.2452 63.8268 66.9082 66.1636 64.0358 66.1636ZM74.3745 50.7757H73.012C72.2607 50.7757 71.6495 50.1645 71.6495 49.4132V48.0507H74.3744V50.7757H74.3745Z" fill="#242734" stroke="white" stroke-width="0.457017"/>
<path d="M21.7199 58.4695C20.3498 58.4695 19.2354 59.584 19.2354 60.954C19.2354 62.324 20.3498 63.4385 21.7199 63.4385C23.0899 63.4385 24.2044 62.324 24.2044 60.954C24.2044 59.584 23.0899 58.4695 21.7199 58.4695Z" fill="#242734" stroke="white" stroke-width="0.457017"/>
<path d="M64.0363 58.4695C62.6663 58.4695 61.5518 59.584 61.5518 60.954C61.5518 62.324 62.6663 63.4385 64.0363 63.4385C65.4063 63.4385 66.5208 62.324 66.5208 60.954C66.5208 59.584 65.4063 58.4695 64.0363 58.4695Z" fill="#242734" stroke="white" stroke-width="0.457017"/>
<path d="M49.9301 53.3403H31.9776C31.3137 53.3403 30.7754 53.8785 30.7754 54.5425C30.7754 55.2066 31.3136 55.7448 31.9776 55.7448H49.9301C50.5939 55.7448 51.1323 55.2066 51.1323 54.5425C51.1323 53.8785 50.5941 53.3403 49.9301 53.3403Z" fill="#242734" stroke="white" stroke-width="0.457017"/>
<path d="M19.1545 48.2109H3.76667C3.1028 48.2109 2.56445 48.7491 2.56445 49.4132C2.56445 50.0772 3.10265 50.6154 3.76667 50.6154H19.1545C19.8184 50.6154 20.3567 50.0772 20.3567 49.4132C20.3567 48.7491 19.8184 48.2109 19.1545 48.2109Z" fill="#242734" stroke="white" stroke-width="0.457017"/>
<path d="M41.8045 31.8928C41.3351 31.4234 40.5738 31.4234 40.1044 31.8929L29.4135 42.5836L23.852 37.0221C23.3825 36.5526 22.6213 36.5526 22.1519 37.0221C21.6824 37.4916 21.6824 38.2527 22.1519 38.7222L28.5636 45.1338C28.7983 45.3687 29.106 45.4859 29.4135 45.4859C29.7211 45.4859 30.029 45.3687 30.2635 45.1338L41.8043 33.593C42.2738 33.1233 42.2738 32.3623 41.8045 31.8928Z" fill="#242734" stroke="white" stroke-width="0.457017"/>
</g>
<defs>
<clipPath id="clip0">
<rect width="84" height="84" fill="white"/>
</clipPath>
</defs>
</svg>
