<svg width="124" height="124" viewBox="0 0 124 124" fill="none" xmlns="http://www.w3.org/2000/svg">
<g filter="url(#filter0_dddd)">
<path fill-rule="evenodd" clip-rule="evenodd" d="M32 38C32 21.4315 45.4315 8 62 8C78.5685 8 92 21.4315 92 38C92 54.5685 78.5685 68 62 68C45.4315 68 32 54.5685 32 38Z" fill="#FFDD63"/>
</g>
<path fill-rule="evenodd" clip-rule="evenodd" d="M62.0015 22C57.6561 22 57.1108 22.019 55.4041 22.0967C53.7007 22.1747 52.5381 22.4443 51.5207 22.84C50.4684 23.2487 49.5757 23.7954 48.6864 24.685C47.7964 25.5744 47.2497 26.467 46.8397 27.5191C46.443 28.5367 46.173 29.6997 46.0963 31.4024C46.02 33.1091 46 33.6548 46 38.0002C46 42.3455 46.0193 42.8892 46.0967 44.5959C46.175 46.2993 46.4447 47.4619 46.84 48.4793C47.249 49.5316 47.7957 50.4243 48.6854 51.3136C49.5744 52.2036 50.467 52.7517 51.5187 53.1603C52.5367 53.556 53.6997 53.8257 55.4028 53.9037C57.1094 53.9813 57.6545 54.0003 61.9995 54.0003C66.3452 54.0003 66.8889 53.9813 68.5956 53.9037C70.2989 53.8257 71.4629 53.556 72.4809 53.1603C73.533 52.7517 74.4243 52.2036 75.3133 51.3136C76.2033 50.4243 76.75 49.5316 77.16 48.4796C77.5533 47.4619 77.8233 46.2989 77.9033 44.5962C77.98 42.8896 78 42.3455 78 38.0002C78 33.6548 77.98 33.1094 77.9033 31.4028C77.8233 29.6994 77.5533 28.5367 77.16 27.5194C76.75 26.467 76.2033 25.5744 75.3133 24.685C74.4233 23.795 73.5333 23.2483 72.4799 22.84C71.4599 22.4443 70.2966 22.1747 68.5932 22.0967C66.8866 22.019 66.3432 22 61.9965 22H62.0015ZM60.5662 24.8834C60.9922 24.8827 61.4675 24.8834 62.0015 24.8834C66.2735 24.8834 66.7799 24.8987 68.4669 24.9754C70.0269 25.0467 70.8736 25.3074 71.4376 25.5264C72.1843 25.8164 72.7166 26.163 73.2763 26.723C73.8363 27.2831 74.183 27.8164 74.4736 28.5631C74.6926 29.1264 74.9536 29.9731 75.0246 31.5331C75.1013 33.2198 75.118 33.7265 75.118 37.9965C75.118 42.2665 75.1013 42.7732 75.0246 44.4599C74.9533 46.0199 74.6926 46.8666 74.4736 47.4299C74.1836 48.1766 73.8363 48.7083 73.2763 49.268C72.7163 49.828 72.1846 50.1746 71.4376 50.4646C70.8743 50.6846 70.0269 50.9446 68.4669 51.016C66.7802 51.0926 66.2735 51.1093 62.0015 51.1093C57.7291 51.1093 57.2228 51.0926 55.5361 51.016C53.9761 50.944 53.1294 50.6833 52.5651 50.4643C51.8184 50.1743 51.2851 49.8276 50.725 49.2676C50.165 48.7076 49.8184 48.1756 49.5277 47.4286C49.3087 46.8653 49.0477 46.0186 48.9767 44.4586C48.9 42.7719 48.8847 42.2652 48.8847 37.9925C48.8847 33.7198 48.9 33.2158 48.9767 31.5291C49.048 29.9691 49.3087 29.1224 49.5277 28.5584C49.8177 27.8117 50.165 27.2784 50.725 26.7184C51.2851 26.1584 51.8184 25.8117 52.5651 25.521C53.1291 25.301 53.9761 25.041 55.5361 24.9694C57.0121 24.9027 57.5841 24.8827 60.5662 24.8794V24.8834ZM70.5423 27.5401C69.4822 27.5401 68.6222 28.3991 68.6222 29.4594C68.6222 30.5194 69.4822 31.3794 70.5423 31.3794C71.6023 31.3794 72.4623 30.5194 72.4623 29.4594C72.4623 28.3994 71.6023 27.5394 70.5423 27.5394V27.5401ZM62.0015 29.7834C57.4638 29.7834 53.7847 33.4625 53.7847 38.0002C53.7847 42.5379 57.4638 46.2153 62.0015 46.2153C66.5392 46.2153 70.2169 42.5379 70.2169 38.0002C70.2169 33.4625 66.5389 29.7834 62.0012 29.7834H62.0015ZM62.0015 32.6668C64.9469 32.6668 67.3349 35.0545 67.3349 38.0002C67.3349 40.9455 64.9469 43.3336 62.0015 43.3336C59.0558 43.3336 56.6681 40.9455 56.6681 38.0002C56.6681 35.0545 59.0558 32.6668 62.0015 32.6668Z" fill="#242734"/>
<defs>
<filter id="filter0_dddd" x="0" y="0" width="124" height="124" filterUnits="userSpaceOnUse" color-interpolation-filters="sRGB">
<feFlood flood-opacity="0" result="BackgroundImageFix"/>
<feColorMatrix in="SourceAlpha" type="matrix" values="0 0 0 0 0 0 0 0 0 0 0 0 0 0 0 0 0 0 127 0"/>
<feOffset/>
<feGaussianBlur stdDeviation="0.5"/>
<feColorMatrix type="matrix" values="0 0 0 0 0 0 0 0 0 0 0 0 0 0 0 0 0 0 0.04 0"/>
<feBlend mode="normal" in2="BackgroundImageFix" result="effect1_dropShadow"/>
<feColorMatrix in="SourceAlpha" type="matrix" values="0 0 0 0 0 0 0 0 0 0 0 0 0 0 0 0 0 0 127 0"/>
<feOffset dy="2"/>
<feGaussianBlur stdDeviation="3"/>
<feColorMatrix type="matrix" values="0 0 0 0 1 0 0 0 0 0.86525 0 0 0 0 0.3875 0 0 0 0.08 0"/>
<feBlend mode="normal" in2="effect1_dropShadow" result="effect2_dropShadow"/>
<feColorMatrix in="SourceAlpha" type="matrix" values="0 0 0 0 0 0 0 0 0 0 0 0 0 0 0 0 0 0 127 0"/>
<feOffset dy="16"/>
<feGaussianBlur stdDeviation="12"/>
<feColorMatrix type="matrix" values="0 0 0 0 1 0 0 0 0 0.86525 0 0 0 0 0.3875 0 0 0 0.1 0"/>
<feBlend mode="normal" in2="effect2_dropShadow" result="effect3_dropShadow"/>
<feColorMatrix in="SourceAlpha" type="matrix" values="0 0 0 0 0 0 0 0 0 0 0 0 0 0 0 0 0 0 127 0"/>
<feOffset dy="24"/>
<feGaussianBlur stdDeviation="16"/>
<feColorMatrix type="matrix" values="0 0 0 0 1 0 0 0 0 0.86525 0 0 0 0 0.3875 0 0 0 0.14 0"/>
<feBlend mode="normal" in2="effect3_dropShadow" result="effect4_dropShadow"/>
<feBlend mode="normal" in="SourceGraphic" in2="effect4_dropShadow" result="shape"/>
</filter>
</defs>
</svg>
