<svg width="58" height="58" viewBox="0 0 58 58" fill="none" xmlns="http://www.w3.org/2000/svg">
<path d="M55.2812 5.4375H2.71875C2.2185 5.4375 1.8125 5.0315 1.8125 4.53125V2.71875C1.8125 2.2185 2.2185 1.8125 2.71875 1.8125H55.2812C55.7815 1.8125 56.1875 2.2185 56.1875 2.71875V4.53125C56.1875 5.0315 55.7815 5.4375 55.2812 5.4375Z" fill="#FFDD63"/>
<path d="M49.8438 22.6562H51.6562V29H49.8438V22.6562Z" fill="#242734"/>
<path d="M40.7812 22.6562H42.5938V29H40.7812V22.6562Z" fill="#242734"/>
<path d="M54.5391 35.3438H46.9619L47.792 30.3657C48.0114 29.0489 49.1387 28.0938 50.4727 28.0938H51.0264C52.3614 28.0938 53.4887 29.0489 53.708 30.3657L54.5391 35.3438Z" fill="#FFDD63"/>
<path d="M41.6875 35.3438C39.6883 35.3438 38.0625 33.7179 38.0625 31.7188C38.0625 29.7196 39.6883 28.0938 41.6875 28.0938C43.6867 28.0938 45.3125 29.7196 45.3125 31.7188C45.3125 33.7179 43.6867 35.3438 41.6875 35.3438Z" fill="#FFDD63"/>
<path d="M51.6562 48.9375H48.0312C47.0298 48.9375 46.2188 48.1264 46.2188 47.125V45.3125H53.4688V47.125C53.4688 48.1264 52.6577 48.9375 51.6562 48.9375Z" fill="#FFDD63"/>
<path d="M38.9688 48.9375H35.3438C34.3423 48.9375 33.5312 48.1264 33.5312 47.125V45.3125H40.7812V47.125C40.7812 48.1264 39.9702 48.9375 38.9688 48.9375Z" fill="#FFDD63"/>
<path d="M26.2812 48.9375H22.6562C21.6548 48.9375 20.8438 48.1264 20.8438 47.125V45.3125H28.0938V47.125C28.0938 48.1264 27.2827 48.9375 26.2812 48.9375Z" fill="#FFDD63"/>
<path d="M55.2812 5.4375H53.4688V19.0312H42.5938V5.4375H40.7812V19.0312H29.9062V5.4375H28.0938V19.0312H17.2188V5.4375H15.4062V19.0312H4.53125V5.4375H2.71875V20.8438H55.2812V5.4375Z" fill="#242734"/>
<path d="M19.0312 9.96875H20.8438V15.4062H19.0312V9.96875Z" fill="#242734"/>
<path d="M11.7812 9.96875H13.5938V15.4062H11.7812V9.96875Z" fill="#242734"/>
<path d="M44.4062 9.96875H46.2188V15.4062H44.4062V9.96875Z" fill="#242734"/>
<path d="M37.1562 9.96875H38.9688V15.4062H37.1562V9.96875Z" fill="#242734"/>
<path d="M32.6014 37.1562C33.1769 36.3968 33.5312 35.4616 33.5312 34.4375V29.9062H35.3438V28.0938H31.552C31.6535 27.8092 31.7188 27.5065 31.7188 27.1875C31.7188 25.6886 30.4989 24.4688 29 24.4688H25.375C23.8761 24.4688 22.6562 25.6886 22.6562 27.1875C22.6562 27.5065 22.7215 27.8092 22.823 28.0938H19.0312V29.9062H20.8438V34.4375C20.8438 35.4616 21.1981 36.3968 21.7736 37.1562H17.2188V57.0938H57.0938V37.1562H32.6014ZM55.2812 40.7812H44.4062V38.9688H55.2812V40.7812ZM31.7188 40.7812V38.9688H42.5938V40.7812H31.7188ZM42.5938 42.5938V55.2812H31.7188V42.5938H42.5938ZM24.4688 27.1875C24.4688 26.6872 24.8757 26.2812 25.375 26.2812H29C29.4993 26.2812 29.9062 26.6872 29.9062 27.1875C29.9062 27.6878 29.4993 28.0938 29 28.0938H25.375C24.8757 28.0938 24.4688 27.6878 24.4688 27.1875ZM25.375 29.9062H29H31.7188V31.7188H22.6562V29.9062H25.375ZM22.6562 34.4375V33.5312H31.7188V34.4375C31.7188 35.9364 30.4989 37.1562 29 37.1562H25.375C23.8761 37.1562 22.6562 35.9364 22.6562 34.4375ZM25.375 38.9688H29H29.9062V40.7812H19.0312V38.9688H25.375ZM19.0312 42.5938H29.9062V55.2812H19.0312V42.5938ZM44.4062 55.2812V42.5938H55.2812V55.2812H44.4062Z" fill="#242734"/>
<path d="M9.0625 22.6562C6.56397 22.6562 4.53125 24.689 4.53125 27.1875V33.5312H0.90625V37.1562V38.0625V41.6875V42.5938V57.0938H13.5938V42.5938H15.4062V37.1562H8.15625V33.5312H6.34375V27.1875C6.34375 25.6886 7.56356 24.4688 9.0625 24.4688C10.5614 24.4688 11.7812 25.6886 11.7812 27.1875H9.96875V29H15.4062V27.1875H13.5938C13.5938 24.689 11.561 22.6562 9.0625 22.6562ZM11.7812 55.2812H2.71875V42.5938H11.7812V55.2812ZM13.5938 40.7812H2.71875V38.9688H13.5938V40.7812ZM2.71875 37.1562V35.3438H6.34375V37.1562H2.71875Z" fill="#242734"/>
<path d="M4.53125 51.6562H6.34375V53.4688H4.53125V51.6562Z" fill="#242734"/>
<path d="M4.53125 44.4062H6.34375V46.2188H4.53125V44.4062Z" fill="#242734"/>
<path d="M4.53125 48.0312H6.34375V49.8438H4.53125V48.0312Z" fill="#242734"/>
</svg>
