<svg viewBox="0 0 14 14" fill="none" xmlns="http://www.w3.org/2000/svg">
<path d="M0.508308 0.672952L3.35206 0.0167019C3.66104 -0.0543918 3.97823 0.106936 4.10401 0.39678L5.41651 3.45928C5.53136 3.72725 5.45479 4.0417 5.22784 4.22491L3.57081 5.58115C4.55518 7.67842 6.2751 9.42295 8.41612 10.4265L9.77237 8.76944C9.95831 8.54248 10.27 8.46592 10.538 8.58076L13.6005 9.89326C13.8931 10.0218 14.0544 10.339 13.9833 10.648L13.3271 13.4917C13.2587 13.787 12.9962 14.0003 12.6872 14.0003C5.68448 14.0003 -0.000286102 8.32647 -0.000286102 1.3128C-0.000286102 1.00655 0.210261 0.741311 0.508308 0.672952Z" fill="#242734"/>
</svg>
