<svg viewBox="0 0 12 8" fill="none" xmlns="http://www.w3.org/2000/svg">
<path d="M0.208646 2.18284C-0.0695824 1.90461 -0.0695825 1.45351 0.208646 1.17528C0.486874 0.897054 0.937972 0.897054 1.2162 1.17528L6.42639 6.38536C6.70462 6.66359 6.70462 7.11469 6.42639 7.39292C6.14816 7.67114 5.69706 7.67114 5.41883 7.39292L0.208646 2.18284Z" fill="#242734"/>
<path d="M5.45605 6.36259C5.18638 6.64908 5.20001 7.09994 5.4865 7.36961C5.77299 7.63928 6.22384 7.62565 6.49351 7.33916L11.3764 2.15185C11.646 1.86536 11.6324 1.41451 11.3459 1.14484C11.0594 0.875164 10.6086 0.888795 10.3389 1.17528L5.45605 6.36259Z" fill="#242734"/>
</svg>
