<svg width="58" height="57" viewBox="0 0 58 57" fill="none" xmlns="http://www.w3.org/2000/svg">
<g clip-path="url(#clip0)">
<path d="M13.0964 20.2259C15.6798 20.2259 17.7739 18.1679 17.7739 15.6291C17.7739 13.0903 15.6798 11.0322 13.0964 11.0322C10.5131 11.0322 8.41895 13.0903 8.41895 15.6291C8.41895 18.1679 10.5131 20.2259 13.0964 20.2259Z" fill="#FFDD63"/>
<path d="M17.4383 13.5769L16.2389 12.1648L11.2838 16.2237L10.0161 14.9788L8.69336 16.279L11.1678 18.7116L17.4383 13.5769Z" fill="#242734"/>
<path d="M34.6132 12.8708H20.5811V14.7096H34.6132V12.8708Z" fill="#242734"/>
<path d="M36.4841 16.5483H20.5811V18.387H36.4841V16.5483Z" fill="#242734"/>
<path d="M17.4383 22.7705L16.2389 21.3584L11.2838 25.4173L10.0161 24.1724L8.69336 25.4726L11.1678 27.9052L17.4383 22.7705Z" fill="#242734"/>
<path d="M40.226 22.0645H20.5811V23.9032H40.226V22.0645Z" fill="#242734"/>
<path d="M24.323 25.7419H20.5811V27.5806H24.323V25.7419Z" fill="#242734"/>
<path d="M40.2255 25.7419H26.1934V27.5806H40.2255V25.7419Z" fill="#242734"/>
<path d="M17.4383 31.9641L16.2389 30.552L11.2838 34.6109L10.0161 33.3661L8.69336 34.6662L11.1678 37.0988L17.4383 31.9641Z" fill="#242734"/>
<path d="M40.226 31.2581H20.5811V33.0968H40.226V31.2581Z" fill="#242734"/>
<path d="M34.6132 34.9353H20.5811V36.774H34.6132V34.9353Z" fill="#242734"/>
<path d="M40.2253 34.9353H36.4834V36.774H40.2253V34.9353Z" fill="#242734"/>
<path d="M40.2253 12.8708H36.4834V14.7096H40.2253V12.8708Z" fill="#242734"/>
<path d="M55.1942 42.2902H53.3233H51.4523H49.5813H47.7104V4.59686C47.7104 2.06209 45.6121 0 43.0331 0H4.67848C2.09925 0 0.000976562 2.06209 0.000976562 4.59686C0.000976562 7.13162 2.09925 9.19371 4.67828 9.19371V57H43.9685V51.4837H47.7104V47.8063H49.5813H51.4523H53.3233H55.1942C56.7415 47.8063 58.0006 46.5689 58.0006 45.0481C58.0006 43.5274 56.7415 42.2902 55.1942 42.2902ZM45.8394 4.59686V42.2904H43.9685V7.35481H43.0329C41.4856 7.35481 40.2265 6.11744 40.2265 4.59666C40.2265 3.07588 41.4856 1.83851 43.0329 1.83851C44.5801 1.83851 45.8394 3.07608 45.8394 4.59686ZM1.87194 4.59686C1.87194 3.07627 3.13102 1.8387 4.67828 1.8387H39.3153C38.7212 2.6091 38.3556 3.55796 38.3556 4.59686C38.3556 5.63575 38.7214 6.58442 39.3153 7.35501H4.67848C3.13122 7.35481 1.87194 6.11744 1.87194 4.59686ZM6.54944 55.1611V9.19352H42.0977V42.2902H15.7526L7.33335 45.0483L15.7526 47.8065H42.0975V55.1613H6.54944V55.1611ZM13.2494 45.0483L14.9687 44.4847V45.6108L13.2494 45.0483ZM45.8394 49.645H43.9685V47.8063H45.8394V49.645ZM47.7104 45.9676H16.8396V44.1289H47.7104V45.9676ZM51.4523 45.9676H49.5813V44.1289H51.4523V45.9676ZM55.1942 45.9676H53.3233V44.1289H55.1942C55.7105 44.1289 56.1296 44.5417 56.1296 45.0483C56.1296 45.5549 55.7107 45.9676 55.1942 45.9676Z" fill="#242734"/>
<rect x="17" y="44" width="31" height="2" fill="#FFDD63"/>
</g>
<defs>
<clipPath id="clip0">
<rect width="58" height="57" fill="white"/>
</clipPath>
</defs>
</svg>
