<svg xmlns="http://www.w3.org/2000/svg" width="156" height="47" fill="none" viewBox="0 0 156 47">
    <path fill="#242734" fill-rule="evenodd" d="M4.863 4.863H48.63c0-1.29-.513-2.527-1.425-3.439C46.293.512 45.057 0 43.767 0H4.863c-1.29 0-2.527.512-3.439 1.424C.512 2.336 0 3.573 0 4.863v14.59c0 1.29.512 2.526 1.424 3.437.912.913 2.149 1.425 3.439 1.425h38.904c1.29 0 2.526-.512 3.438-1.425.913-.911 1.425-2.148 1.425-3.438H4.863V4.862zM53.492 0v24.315H97.26c1.29 0 2.527-.512 3.439-1.425.911-.911 1.424-2.148 1.424-3.438V14.59c0-1.29-.513-2.526-1.424-3.439-.912-.912-2.149-1.424-3.44-1.424H58.357V4.863h43.766V0h-48.63zm4.864 14.59h38.903v4.862H58.355V14.59zM106.985 0v24.315h4.864v-9.726l10.154-3.385 23.599 13.11h10.013L128.261 9.119 155.615 0h-15.378l-28.388 9.463V0h-4.864z" clip-rule="evenodd"/>
    <path fill="#242734" fill-rule="evenodd" stroke="#242734" stroke-width=".116" d="M.935 28.551v1.035h154.854V28.55H.935z" clip-rule="evenodd"/>
    <path fill="#242734" d="M5.39 37.37l-1.459-3.847h-1.82v5.55h1.47v-3.407l1.297 3.407H5.9l1.376-3.53v3.53H8.73v-5.55H6.894L5.39 37.371zM15.195 39.18c1.373 0 2.297-.667 2.514-1.697l-1.423-.094c-.155.423-.553.643-1.066.643-.77 0-1.257-.51-1.257-1.337v-.003h3.779v-.423c0-1.886-1.142-2.818-2.609-2.818-1.632 0-2.691 1.16-2.691 2.872 0 1.76 1.044 2.858 2.753 2.858zm-1.232-3.442c.032-.632.513-1.138 1.196-1.138.668 0 1.13.477 1.134 1.138h-2.33zM26.106 31.486c-.27.191-.704.188-1.297.188-.14 0-.289-.004-.448 0-2.02.018-3.074 1.282-3.074 3.956v.455c0 2.016 1.04 3.096 2.72 3.096 1.677 0 2.713-1.08 2.713-2.775 0-1.625-.95-2.597-2.366-2.597-.892 0-1.492.386-1.824 1.066h-.054c.13-1.362.65-1.922 1.936-1.937 1.138-.018 1.69-.058 2.164-.448l-.47-1.004zm-2.091 6.503c-.727 0-1.164-.586-1.164-1.532.008-.947.441-1.481 1.156-1.481.712 0 1.15.534 1.15 1.48 0 .951-.438 1.533-1.142 1.533zM33.018 39.18c1.372 0 2.297-.667 2.514-1.697l-1.423-.094c-.156.423-.553.643-1.066.643-.77 0-1.257-.51-1.257-1.337v-.003h3.779v-.423c0-1.886-1.142-2.818-2.609-2.818-1.633 0-2.691 1.16-2.691 2.872 0 1.76 1.044 2.858 2.753 2.858zm-1.232-3.442c.032-.632.513-1.138 1.195-1.138.669 0 1.131.477 1.135 1.138h-2.33zM38.99 39.072h.463c1.178 0 1.803-.78 1.897-2.644l.086-1.694h1.37v4.338h1.466v-5.549h-4.22l-.09 2.457c-.054 1.405-.27 1.871-.794 1.871h-.185l.008 1.221zM49.682 35.229v-1.706h-1.47v5.55h2.623c1.47 0 2.334-.77 2.337-1.915-.003-1.167-.867-1.93-2.337-1.93h-1.153zm0 1.21h1.153c.517 0 .882.303.889.73-.007.404-.372.693-.889.693h-1.153V36.44zM58.41 33.523h-1.47v5.55h1.47v-2.179h1.897v2.178h1.46v-5.549h-1.46v2.16H58.41v-2.16zM67.29 39.177c.82 0 1.35-.357 1.622-.874h.043v.77h1.46V35.33c0-1.322-1.12-1.879-2.356-1.879-1.33 0-2.204.636-2.417 1.648l1.424.115c.104-.368.433-.64.986-.64.524 0 .823.264.823.72v.021c0 .358-.379.405-1.344.499-1.098.101-2.084.47-2.084 1.709 0 1.098.784 1.654 1.843 1.654zm.44-1.062c-.473 0-.813-.22-.813-.643 0-.434.358-.647.9-.723.336-.046.885-.126 1.07-.249v.59c0 .58-.481 1.025-1.157 1.025zM77.607 39.072h1.434v-5.549h-2.475c-1.438 0-2.334.737-2.326 1.821-.004.676.375 1.203 1.037 1.492l-1.196 2.236h1.474l1.065-2h.987v2zm0-3.041h-1.055c-.56 0-.853-.282-.846-.643-.007-.355.293-.658.86-.658h1.04v1.3zM88.085 39.072h1.539v-1.968h.574l1.37 1.968h1.828l-1.984-2.796 1.962-2.753h-1.806l-1.51 2.154h-.434v-2.154h-1.54v5.55zM99.071 39.18c1.684 0 2.731-1.152 2.731-2.86 0-1.72-1.047-2.869-2.73-2.869-1.684 0-2.732 1.149-2.732 2.869 0 1.708 1.048 2.86 2.731 2.86zm.008-1.191c-.777 0-1.175-.712-1.175-1.68s.398-1.684 1.175-1.684c.762 0 1.159.716 1.159 1.684s-.397 1.68-1.16 1.68zM108.83 37.37l-1.459-3.847h-1.821v5.55h1.47v-3.407l1.297 3.407h1.023l1.376-3.53v3.53h1.452v-5.55h-1.835l-1.503 3.848zM116.106 39.072h1.452v-4.338h1.929v4.338h1.47v-5.549h-4.851v5.55zM126.515 39.177c.82 0 1.351-.357 1.622-.874h.043v.77h1.46V35.33c0-1.322-1.12-1.879-2.356-1.879-1.329 0-2.203.636-2.416 1.648l1.423.115c.105-.368.433-.64.986-.64.524 0 .824.264.824.72v.021c0 .358-.379.405-1.344.499-1.098.101-2.085.47-2.085 1.709 0 1.098.784 1.654 1.843 1.654zm.441-1.062c-.474 0-.813-.22-.813-.643 0-.434.357-.647.899-.723.336-.046.885-.126 1.07-.249v.59c0 .58-.481 1.025-1.156 1.025zM135.051 33.523h-1.47v5.55h1.47v-2.179h1.897v2.178h1.459v-5.549h-1.459v2.16h-1.897v-2.16zM143.818 37.042v-3.519h-1.47v5.55h1.528l1.991-3.53v3.53h1.467v-5.55h-1.518l-1.998 3.52zM154.565 39.072H156v-5.549h-2.475c-1.438 0-2.334.737-2.327 1.821-.003.676.376 1.203 1.037 1.492l-1.196 2.236h1.474l1.066-2h.986v2zm0-3.041h-1.054c-.56 0-.853-.282-.846-.643-.007-.355.293-.658.86-.658h1.04v1.3z"/>
</svg>
