<svg width="177" height="40" viewBox="0 0 177 40" fill="none" xmlns="http://www.w3.org/2000/svg">
<g clip-path="url(#clip0)">
<path fill-rule="evenodd" clip-rule="evenodd" d="M39.2129 0V13.5599H175.423V0H39.2129ZM0 21.9007V40H26.7249V36.6246H12.5831V32.6978H26.7249V29.232H12.5177V25.2761H26.7219V21.9007H0Z" fill="#D4082C"/>
<path fill-rule="evenodd" clip-rule="evenodd" d="M44.8012 21.9009C41.7074 21.9009 39.2134 24.3748 39.2134 27.4235V40.0002H63.4709C63.4709 40.0002 63.5036 37.5788 63.5036 37.3308C63.5036 37.0858 63.3254 36.9662 63.1295 36.9632C62.9395 36.9574 47.2389 36.9632 47.2389 36.9632V32.4851H61.0363V29.8478C61.0363 29.6202 60.8908 29.4802 60.6622 29.4802H47.2389V24.9087H63.4739V22.2101C63.4739 21.968 63.3254 21.9038 63.1295 21.9038H44.8012V21.9009ZM72.3664 21.9009C69.2785 21.9009 66.7785 24.3748 66.7785 27.4235V40.0002H91.2558V29.8478C91.2558 29.6552 91.0687 29.4802 90.8817 29.4802C90.7124 29.4802 82.2624 29.5123 80.2048 29.5123C79.9673 29.5123 79.8307 29.6698 79.8307 29.8507V32.488H88.0729V36.6919H74.7743V24.8766H91.2587V22.2072C91.2587 21.9767 91.1133 21.9009 90.8846 21.9009H72.3664ZM100.525 21.9009C97.4374 21.9009 94.9375 24.3748 94.9375 27.4235V40.0002H119.412V29.8478C119.412 29.6552 119.254 29.4802 119.067 29.4802C118.898 29.4802 110.451 29.5123 108.39 29.5123C108.156 29.5123 108.046 29.6669 108.046 29.8507C108.046 30.0345 108.016 32.488 108.016 32.488H116.259V36.6919H102.96V24.8766H119.412V22.2072C119.412 21.9767 119.296 21.9009 119.067 21.9009H100.525ZM128.75 21.9009C125.656 21.9009 123.162 24.3748 123.162 27.4235V40.0002H147.419V37.3308C147.419 37.0858 147.271 36.9662 147.075 36.9632C146.885 36.9574 131.184 36.9632 131.184 36.9632V32.4851H144.952V29.8478C144.952 29.6202 144.836 29.4802 144.608 29.4802H131.184V24.9087H147.419V22.2101C147.419 21.968 147.238 21.9038 147.045 21.9038H128.75V21.9009ZM156.252 21.9009C153.164 21.9009 150.697 24.3748 150.697 27.4235V40.0002H158.69V32.4851C158.69 32.4851 167.223 39.6735 166.932 39.478C167.303 39.7697 167.473 40.0061 167.838 40.0002H176.611C177.475 40.0002 176.644 39.3555 176.644 39.3555L168.402 32.4851H170.587C173.259 32.4851 175.427 29.8128 175.427 27.1784C175.427 24.544 173.286 21.9009 170.62 21.9009H156.252ZM158.69 24.9087H169.492C170.418 24.9087 171.585 25.6176 171.585 27.2105C171.585 28.6487 170.347 29.5123 169.492 29.5123H158.69V24.9087Z" fill="#242734"/>
</g>
<defs>
<clipPath id="clip0">
<rect width="177" height="40" fill="white"/>
</clipPath>
</defs>
</svg>
